# xmcd
# 
# Track frame offsets:
#     180
#     16619
#     39586
#     56726
#     73712
#     99448
#     118316
#     136677
#     156157
#     181707
#     197693
#     225688
#     237523
#     257250
#     274279
#     296062
# 
# Disc length: 4214
# 
# Revision: 3
# Processed by: cddbd v1.5.2PL0 Copyright (c) Steve Scherf et al.
# Submitted via: fre:ac v1.0.27
# 
DISCID=de107410
DTITLE=Black and Blue - BLACK and BLUE VOL. 1 - THE STORY OF THE BLUES 1963-1976
DYEAR=1994
DGENRE=Blues
TTITLE0=Memphis Slim and Matt Murphy - Jamboree jump
TTITLE1=T-Bone Walker - I want a little girl
TTITLE2=Eddie "Cleanhead" Vinson - Old maid boogie
TTITLE3=Jay McShann - Kansas city
TTITLE4=John Lee Hooker - I'm so worried baby
TTITLE5=Roosevelt Sykes - Miss durty gurty blues
TTITLE6=Homesick James - Shake your money maker
TTITLE7=Big Joe Turner - Money first
TTITLE8=Bill Doggett - I don't know much about love
TTITLE9=Cousin Joe - I don't want no second hand love
TTITLE10=Jimmy Dawkins - You've got to keep on trying
TTITLE11=Clarence "Gatemouth" Brown - New Okie-Dookie Stomp
TTITLE12=Luther Johnson - On the road again
TTITLE13=Johnnny Shines - Back to the steelmill
TTITLE14=Louis Jordan - It's a lowdown dirty shame
TTITLE15=Koko Taylor - I got what it takes
EXTD=Fremeaux et Associés\nFA030 YEAR: 1994
EXTT0=
EXTT1=
EXTT2=
EXTT3=
EXTT4=
EXTT5=
EXTT6=
EXTT7=
EXTT8=
EXTT9=
EXTT10=
EXTT11=
EXTT12=
EXTT13=
EXTT14=
EXTT15=
PLAYORDER=
